<svg width="439" height="258" viewBox="0 0 439 258" fill="none" xmlns="http://www.w3.org/2000/svg">
<path d="M12.1927 190.871C23.2297 230.252 59.0697 257.566 100.108 257.566C147.566 257.566 187.209 220.882 191.105 173.735C197.635 168.361 207.449 162.465 219.473 162.465C219.481 162.465 219.481 162.465 219.49 162.465C230.269 162.694 240.095 168.621 246.797 173.959C250.8 220.974 290.434 257.565 337.781 257.565C378.741 257.565 414.535 230.335 425.639 191.053C435.341 187.74 439.829 175.076 437.682 156.429C437.361 153.664 436.656 151.4 435.734 149.5H436.139L359.645 13.0787C357.208 8.7387 351.41 4.98369 346.453 4.54469L295.848 0.0386965C290.366 -0.448303 285.897 3.7217 285.897 9.1457V18.3687C285.897 23.8567 290.426 27.8517 295.868 27.2647L349.059 21.1017L384.829 87.8747C370.979 79.5227 354.846 74.7507 337.782 74.7507C294.161 74.7507 256.655 105.948 248.223 148.223C238.878 143.114 229.393 140.425 219.953 140.224L218.941 140.216C208.995 140.216 199.158 142.853 189.629 148.067C181.127 105.889 143.642 74.7587 100.109 74.7587C83.1307 74.7587 67.0857 79.4837 53.2737 87.7607L88.9757 21.1167L142.166 27.2807C147.566 27.8737 152.143 23.8727 152.143 18.3847V9.1617C152.143 3.7377 147.689 -0.486304 142.181 0.0526964L91.5757 4.5607C86.6167 5.0097 80.8237 8.75469 78.3827 13.1007L1.89474 149.501H2.48374C1.55574 151.4 0.850735 153.657 0.521735 156.43C-1.58326 174.733 2.75573 187.328 12.1927 190.871ZM337.689 98.1157C375.868 98.1157 406.933 129.179 406.933 167.36C406.933 205.543 375.868 236.6 337.689 236.6C299.509 236.6 268.444 205.542 268.444 167.36C268.444 129.179 299.509 98.1157 337.689 98.1157ZM101.389 98.1157C139.574 98.1157 170.639 129.179 170.639 167.36C170.639 205.543 139.573 236.6 101.389 236.6C63.2137 236.6 32.1487 205.542 32.1487 167.36C32.1477 129.179 63.2137 98.1157 101.389 98.1157Z" fill="black"/>
<circle cx="101" cy="168" r="70" fill="#ED9120"/>
<path d="M310.198 160.643L335.967 176.61C336.386 176.87 336.863 177 337.339 177C337.826 177 338.313 176.865 338.737 176.594L363.828 160.627C365.006 159.877 365.353 158.338 364.607 157.171L339.022 117.181C338.552 116.446 337.729 116 336.845 116C336.843 116 336.84 116 336.838 116C335.951 116.002 335.129 116.453 334.661 117.192L309.386 157.183C308.643 158.359 309.005 159.904 310.198 160.643ZM336.859 123.284L358.908 157.748L337.321 171.486L315.097 157.715L336.859 123.284Z" fill="black"/>
<path d="M309.48 173.141L335.996 210.908C336.477 211.594 337.254 212 338.079 212C338.096 212 338.113 212 338.13 212C338.974 211.983 339.756 211.542 340.22 210.822L364.578 173.056C365.24 172.029 365.113 170.671 364.272 169.791C363.432 168.911 362.105 168.745 361.082 169.395L337.146 184.591L312.905 169.387C311.865 168.735 310.52 168.922 309.688 169.833C308.856 170.745 308.769 172.129 309.48 173.141ZM335.812 189.897C336.64 190.416 337.684 190.413 338.508 189.89L353.874 180.135L337.989 204.764L321.052 180.639L335.812 189.897Z" fill="black"/>
<path d="M90.0869 160.941L116.734 167.986C117.684 168.237 118.648 168.361 119.607 168.361C121.488 168.361 123.346 167.883 125.023 166.946C127.584 165.515 129.411 163.194 130.166 160.411C131.715 154.712 128.235 148.822 122.409 147.282L95.7614 140.237C95.108 140.064 94.4115 140.152 93.8251 140.479C93.2391 140.806 92.8123 141.347 92.6402 141.981L88.3021 157.949C87.9487 159.251 88.7447 160.586 90.0869 160.941V160.941ZM96.8948 145.627L121.073 152.019C124.226 152.853 126.105 156.057 125.262 159.163C124.852 160.669 123.867 161.923 122.488 162.694C121.137 163.449 119.569 163.646 118.071 163.25L93.8471 156.846L96.8948 145.627Z" fill="black"/>
<path d="M98.0268 213.45C98.6381 213.617 99.2595 213.7 99.8779 213.7C101.1 213.7 102.309 213.377 103.403 212.743C105.11 211.755 106.331 210.141 106.841 208.198L107.478 205.767L110.721 206.655C116.128 208.136 121.803 207.391 126.701 204.555C131.756 201.63 135.367 196.861 136.871 191.128C138.586 184.585 137.291 177.771 133.415 172.433C136.06 169.832 137.941 166.576 138.907 162.891C141.74 152.088 135.659 140.963 125.305 137.787L126.184 134.437C127.211 130.519 124.955 126.484 121.154 125.443C119.335 124.945 117.426 125.195 115.778 126.149C114.071 127.137 112.85 128.752 112.34 130.695L111.476 133.99L106.347 132.586L107.224 129.244C108.251 125.326 105.995 121.291 102.194 120.25C100.375 119.752 98.4657 120.003 96.818 120.957C95.1107 121.945 93.8896 123.559 93.38 125.502L92.5161 128.798L82.1523 125.959C80.3332 125.46 78.4238 125.712 76.7761 126.666C75.0687 127.654 73.8477 129.268 73.3381 131.211C72.3107 135.129 74.5669 139.164 78.3676 140.205L83.3132 141.559L72.9624 181.032L68.0624 179.69C66.2432 179.191 64.3339 179.442 62.6862 180.396C60.9785 181.385 59.7577 182.999 59.2482 184.942C58.2208 188.86 60.4769 192.895 64.2777 193.935L74.687 196.786L74.0377 199.263C73.0103 203.181 75.2664 207.216 79.0671 208.257C80.8866 208.756 82.796 208.504 84.4434 207.55C86.1507 206.562 87.3718 204.948 87.8813 203.005L88.5187 200.574L93.647 201.979L92.9976 204.455C91.9699 208.374 94.2261 212.409 98.0268 213.45V213.45ZM87.4031 195.08C87.1867 195.02 86.9658 194.991 86.7454 194.991C86.3111 194.991 85.8805 195.105 85.4974 195.326C84.9206 195.66 84.5006 196.211 84.3312 196.857L83.0529 201.732C82.8848 202.372 82.4921 202.899 81.9473 203.214C81.4621 203.495 80.9059 203.57 80.3821 203.427C79.2116 203.107 78.531 201.81 78.8651 200.536L80.1435 195.661C80.4916 194.333 79.7081 192.972 78.3872 192.61L65.5926 189.106C64.4221 188.785 63.7415 187.488 64.0756 186.214C64.2437 185.573 64.6364 185.047 65.1812 184.731C65.6665 184.451 66.2223 184.376 66.7465 184.518L74.0773 186.526C74.7196 186.702 75.4056 186.613 75.983 186.28C76.5597 185.946 76.9797 185.395 77.1492 184.748L88.7699 140.434C89.1181 139.106 88.3343 137.744 87.0137 137.383L79.6828 135.375C78.5123 135.054 77.8317 133.757 78.1659 132.483C78.334 131.843 78.7267 131.316 79.2715 131.001C79.7567 130.72 80.3125 130.645 80.8367 130.788L93.6313 134.292C94.274 134.468 94.9596 134.379 95.537 134.045C96.1138 133.712 96.5338 133.16 96.7032 132.514L98.2081 126.775C98.3762 126.135 98.7689 125.608 99.3137 125.293C99.799 125.012 100.355 124.936 100.879 125.08C102.049 125.4 102.73 126.697 102.396 127.971L100.891 133.71C100.542 135.038 101.326 136.4 102.647 136.761L112.591 139.485C113.234 139.661 113.92 139.573 114.497 139.239C115.074 138.905 115.494 138.353 115.663 137.707L117.168 131.968C117.336 131.327 117.729 130.801 118.274 130.485C118.759 130.205 119.315 130.13 119.839 130.273C121.009 130.593 121.69 131.89 121.356 133.164L119.851 138.903C119.503 140.231 120.287 141.593 121.607 141.955L123.41 142.448C131.485 144.66 136.271 153.259 134.079 161.618C133.175 165.065 131.223 168.014 128.434 170.147C127.875 170.574 127.522 171.218 127.461 171.92C127.4 172.622 127.637 173.318 128.114 173.835C132.076 178.139 133.544 184.127 132.042 189.855C130.88 194.287 128.097 197.967 124.205 200.22C120.471 202.382 116.149 202.953 112.036 201.827L106.363 200.273C105.72 200.096 105.035 200.186 104.457 200.519C103.881 200.853 103.461 201.404 103.291 202.051L102.013 206.925C101.845 207.565 101.452 208.092 100.907 208.407C100.422 208.688 99.8662 208.763 99.342 208.62C98.1715 208.3 97.4913 207.003 97.8254 205.729L99.1037 200.854C99.4519 199.526 98.6684 198.165 97.3475 197.803L87.4031 195.08Z" fill="black"/>
<path d="M116.495 197.58C118.562 197.58 120.604 197.038 122.449 195.977C125.269 194.355 127.28 191.723 128.114 188.565C129.819 182.102 125.992 175.425 119.583 173.681L89.2619 165.427C88.6145 165.251 87.9238 165.34 87.342 165.674C86.761 166.008 86.3378 166.561 86.1672 167.207L81.2488 185.847C80.8981 187.176 81.6877 188.539 83.0181 188.902L113.339 197.155C114.382 197.439 115.442 197.58 116.495 197.58V197.58ZM90.3858 170.929L118.258 178.516C122.017 179.539 124.256 183.475 123.25 187.29C122.761 189.144 121.583 190.688 119.934 191.636C118.322 192.564 116.451 192.806 114.665 192.32L86.7466 184.721L90.3858 170.929Z" fill="black"/>
</svg>
