<svg width="488" height="283" viewBox="0 0 488 283" fill="none" xmlns="http://www.w3.org/2000/svg">
<circle cx="109" cy="173" r="75" fill="#ED9120"/>
<path d="M454.5 95C451.8 92.4 448.9 89.9 445.9 87.5L404.9 52.7C389.1 41.5 370.3 34.4 349.9 33L352.1 35.2L327.2 10.2H327C320.1 3.9 310.8 0 300.7 0C283.3 0 268.6 11.3 263.6 27C258.6 23.8 252.8 21.9 246.5 21.5C245.5 21.4 244.4 21.4 243.4 21.4C236.3 21.4 229.7 23.5 224.1 27C219 11.4 204.3 0.0999985 187 0.0999985C176.9 0.0999985 167.7 3.9 160.7 10.3H160.5L135.6 35.3L137.8 33.1C117.4 34.5 98.5 41.7 82.8 52.8L41.8 87.6C38.8 89.9 35.9 92.4 33.2 95.1C12.7 114.9 0 142.6 0 173.3C0 233.3 48.8 282.1 108.8 282.1C164.2 282.1 210.1 240.4 216.7 186.7C224.7 191.3 234 193.9 243.8 193.9C253.7 193.9 262.9 191.3 270.9 186.7C277.6 240.3 323.4 282 378.8 282C438.8 282 487.6 233.2 487.6 173.2C487.7 142.5 475 114.8 454.5 95ZM108.8 247.5C67.8 247.5 34.6 214.3 34.6 173.3C34.6 132.3 67.8 99.1 108.8 99.1C149.8 99.1 183 132.3 183 173.3C183.1 214.2 149.8 247.5 108.8 247.5ZM243.9 163.1C230.6 163.1 219.8 152.3 219.8 139C219.8 125.7 230.6 114.9 243.9 114.9C257.2 114.9 268 125.7 268 139C268 152.3 257.2 163.1 243.9 163.1ZM379 247.5C338 247.5 304.8 214.3 304.8 173.3C304.8 132.3 338 99.1 379 99.1C420 99.1 453.2 132.3 453.2 173.3C453.2 214.2 420 247.5 379 247.5Z" fill="black"/>
<path d="M354.198 167.643L379.967 183.61C380.386 183.87 380.863 184 381.339 184C381.826 184 382.313 183.865 382.737 183.594L407.828 167.627C409.006 166.877 409.353 165.338 408.607 164.171L383.022 124.181C382.552 123.446 381.729 123 380.845 123C380.843 123 380.84 123 380.838 123C379.951 123.002 379.129 123.453 378.661 124.192L353.386 164.183C352.643 165.359 353.005 166.904 354.198 167.643ZM380.859 130.284L402.908 164.748L381.321 178.486L359.097 164.715L380.859 130.284Z" fill="black"/>
<path d="M353.48 180.141L379.996 217.908C380.477 218.594 381.254 219 382.079 219C382.096 219 382.113 219 382.13 219C382.974 218.983 383.756 218.542 384.22 217.822L408.578 180.056C409.24 179.029 409.113 177.671 408.272 176.791C407.432 175.911 406.105 175.745 405.082 176.395L381.146 191.591L356.905 176.387C355.865 175.735 354.52 175.922 353.688 176.833C352.856 177.745 352.769 179.129 353.48 180.141ZM379.812 196.897C380.64 197.416 381.684 197.413 382.508 196.89L397.874 187.135L381.989 211.764L365.052 187.639L379.812 196.897Z" fill="black"/>
<path d="M95.0868 166.941L121.734 173.986C122.684 174.237 123.648 174.361 124.607 174.361C126.488 174.361 128.346 173.883 130.023 172.946C132.584 171.515 134.411 169.194 135.166 166.411C136.715 160.712 133.235 154.822 127.409 153.282L100.761 146.237C100.108 146.064 99.4114 146.152 98.8251 146.479C98.2391 146.806 97.8123 147.347 97.6402 147.981L93.3021 163.949C92.9487 165.251 93.7447 166.586 95.0868 166.941V166.941ZM101.895 151.627L126.073 158.019C129.226 158.853 131.105 162.057 130.262 165.163C129.852 166.669 128.867 167.923 127.488 168.694C126.137 169.449 124.569 169.646 123.071 169.25L98.8471 162.846L101.895 151.627Z" fill="black"/>
<path d="M103.027 219.45C103.638 219.617 104.259 219.7 104.878 219.7C106.1 219.7 107.309 219.377 108.403 218.743C110.11 217.755 111.331 216.141 111.841 214.198L112.478 211.767L115.721 212.655C121.128 214.136 126.803 213.391 131.701 210.555C136.756 207.63 140.367 202.861 141.871 197.128C143.586 190.585 142.291 183.771 138.415 178.433C141.06 175.832 142.941 172.576 143.907 168.891C146.74 158.088 140.659 146.963 130.305 143.787L131.184 140.437C132.211 136.519 129.955 132.484 126.154 131.443C124.335 130.945 122.426 131.195 120.778 132.149C119.071 133.137 117.85 134.752 117.34 136.695L116.476 139.99L111.347 138.586L112.224 135.244C113.251 131.326 110.995 127.291 107.194 126.25C105.375 125.752 103.466 126.003 101.818 126.957C100.111 127.945 98.8896 129.559 98.38 131.502L97.5161 134.798L87.1523 131.959C85.3332 131.46 83.4238 131.712 81.7761 132.666C80.0687 133.654 78.8477 135.268 78.3381 137.211C77.3107 141.129 79.5669 145.164 83.3676 146.205L88.3132 147.559L77.9624 187.032L73.0624 185.69C71.2432 185.191 69.3339 185.442 67.6862 186.396C65.9785 187.385 64.7577 188.999 64.2482 190.942C63.2208 194.86 65.4769 198.895 69.2777 199.935L79.687 202.786L79.0377 205.263C78.0103 209.181 80.2664 213.216 84.0671 214.257C85.8866 214.756 87.796 214.504 89.4434 213.55C91.1507 212.562 92.3718 210.948 92.8813 209.005L93.5187 206.574L98.647 207.979L97.9976 210.455C96.9699 214.374 99.2261 218.409 103.027 219.45V219.45ZM92.4031 201.08C92.1867 201.02 91.9658 200.991 91.7454 200.991C91.3111 200.991 90.8805 201.105 90.4974 201.326C89.9206 201.66 89.5006 202.211 89.3312 202.857L88.0529 207.732C87.8848 208.372 87.4921 208.899 86.9473 209.214C86.4621 209.495 85.9059 209.57 85.3821 209.427C84.2116 209.107 83.531 207.81 83.8651 206.536L85.1435 201.661C85.4916 200.333 84.7081 198.972 83.3872 198.61L70.5926 195.106C69.4221 194.785 68.7415 193.488 69.0756 192.214C69.2437 191.573 69.6364 191.047 70.1812 190.731C70.6665 190.451 71.2223 190.376 71.7465 190.518L79.0773 192.526C79.7196 192.702 80.4056 192.613 80.983 192.28C81.5597 191.946 81.9797 191.395 82.1492 190.748L93.7699 146.434C94.1181 145.106 93.3343 143.744 92.0137 143.383L84.6828 141.375C83.5123 141.054 82.8317 139.757 83.1659 138.483C83.334 137.843 83.7267 137.316 84.2715 137.001C84.7567 136.72 85.3125 136.645 85.8367 136.788L98.6313 140.292C99.274 140.468 99.9596 140.379 100.537 140.045C101.114 139.712 101.534 139.16 101.703 138.514L103.208 132.775C103.376 132.135 103.769 131.608 104.314 131.293C104.799 131.012 105.355 130.936 105.879 131.08C107.049 131.4 107.73 132.697 107.396 133.971L105.891 139.71C105.542 141.038 106.326 142.4 107.647 142.761L117.591 145.485C118.234 145.661 118.92 145.573 119.497 145.239C120.074 144.905 120.494 144.353 120.663 143.707L122.168 137.968C122.336 137.327 122.729 136.801 123.274 136.485C123.759 136.205 124.315 136.13 124.839 136.273C126.009 136.593 126.69 137.89 126.356 139.164L124.851 144.903C124.503 146.231 125.287 147.593 126.607 147.955L128.41 148.448C136.485 150.66 141.271 159.259 139.079 167.618C138.175 171.065 136.223 174.014 133.434 176.147C132.875 176.574 132.522 177.218 132.461 177.92C132.4 178.622 132.637 179.318 133.114 179.835C137.076 184.139 138.544 190.127 137.042 195.855C135.88 200.287 133.097 203.967 129.205 206.22C125.471 208.382 121.149 208.953 117.036 207.827L111.363 206.273C110.72 206.096 110.035 206.186 109.457 206.519C108.881 206.853 108.461 207.404 108.291 208.051L107.013 212.925C106.845 213.565 106.452 214.092 105.907 214.407C105.422 214.688 104.866 214.763 104.342 214.62C103.172 214.3 102.491 213.003 102.825 211.729L104.104 206.854C104.452 205.526 103.668 204.165 102.347 203.803L92.4031 201.08Z" fill="black"/>
<path d="M121.495 203.58C123.562 203.58 125.604 203.038 127.448 201.977C130.269 200.355 132.28 197.723 133.114 194.565C134.819 188.102 130.992 181.425 124.583 179.681L94.2618 171.427C93.6144 171.251 92.9237 171.34 92.342 171.674C91.7609 172.008 91.3378 172.561 91.1671 173.207L86.2487 191.847C85.898 193.177 86.6876 194.54 88.0181 194.902L118.339 203.155C119.382 203.439 120.442 203.58 121.495 203.58V203.58ZM95.3857 176.929L123.258 184.516C127.017 185.539 129.256 189.475 128.25 193.29C127.761 195.144 126.583 196.688 124.934 197.636C123.322 198.564 121.451 198.806 119.665 198.32L91.7465 190.721L95.3857 176.929Z" fill="black"/>
</svg>
