<svg width="10" height="24" viewBox="0 0 24 24" fill="none" xmlns="http://www.w3.org/2000/svg">
	<style>
    path {
        fill:#212121;
    }

    @media (prefers-color-scheme: dark){
        path {
            fill: white;
            opacity: 0.10;
        }
    }
</style>
<ellipse cx="5.36489" cy="14.7182" rx="3.69155" ry="6.38072" fill="#ED9120"/>
<path d="M22.3708 8.08224C22.2379 7.86104 22.0951 7.64835 21.9475 7.44417L19.9294 4.48352C19.1517 3.53066 18.2264 2.92662 17.2223 2.80752L17.3306 2.99468L16.105 0.867777H16.0951C15.7555 0.331797 15.2978 0 14.8006 0C13.9442 0 13.2207 0.961361 12.9746 2.29706C12.7285 2.02481 12.443 1.86317 12.1329 1.82914C12.0837 1.82063 12.0295 1.82063 11.9803 1.82063C11.6308 1.82063 11.306 1.99929 11.0303 2.29706C10.7793 0.969869 10.0558 0.00850749 9.20425 0.00850749C8.70713 0.00850749 8.2543 0.331797 7.90975 0.876285H7.89991L6.67432 3.00319L6.7826 2.81602C5.7785 2.93513 4.84823 3.54768 4.07547 4.49202L2.05742 7.45268C1.90976 7.64835 1.76702 7.86104 1.63412 8.09075C0.625102 9.77526 0 12.1319 0 14.7437C0 19.8483 2.40197 24 5.3552 24C8.08203 24 10.3413 20.4523 10.6661 15.8837C11.0599 16.2751 11.5176 16.4963 12 16.4963C12.4873 16.4963 12.9401 16.2751 13.3339 15.8837C13.6636 20.4438 15.9179 23.9915 18.6448 23.9915C21.598 23.9915 24 19.8398 24 14.7352C24.0049 12.1234 23.3798 9.76675 22.3708 8.08224ZM5.3552 21.0564C3.33716 21.0564 1.70303 18.2318 1.70303 14.7437C1.70303 11.2556 3.33716 8.43105 5.3552 8.43105C7.37325 8.43105 9.00737 11.2556 9.00737 14.7437C9.01229 18.2233 7.37325 21.0564 5.3552 21.0564ZM12.0049 13.8759C11.3503 13.8759 10.8187 12.9571 10.8187 11.8256C10.8187 10.6941 11.3503 9.77526 12.0049 9.77526C12.6595 9.77526 13.1911 10.6941 13.1911 11.8256C13.1911 12.9571 12.6595 13.8759 12.0049 13.8759ZM18.6546 21.0564C16.6366 21.0564 15.0024 18.2318 15.0024 14.7437C15.0024 11.2556 16.6366 8.43105 18.6546 8.43105C20.6727 8.43105 22.3068 11.2556 22.3068 14.7437C22.3068 18.2233 20.6727 21.0564 18.6546 21.0564Z" fill="black"/>
</svg>
