<svg width="20" height="20" viewBox="0 0 24 24" fill="none" xmlns="http://www.w3.org/2000/svg">
<style>
    path {
        fill:#212121;
    }

    @media (prefers-color-scheme: dark){
        path {
            fill: grey;
            opacity: 0.5;
        }
    }
</style>
<path d="M0.667776 17.7854C1.27226 21.4549 3.23515 24 5.48274 24C8.08194 24 10.2531 20.5818 10.4665 16.1886C10.8241 15.6879 11.3616 15.1385 12.0202 15.1385C12.0206 15.1385 12.0206 15.1385 12.0211 15.1385C12.6114 15.1598 13.1496 15.7121 13.5167 16.2095C13.7359 20.5904 15.9066 23.9999 18.4997 23.9999C20.743 23.9999 22.7034 21.4626 23.3115 17.8023C23.8429 17.4936 24.0887 16.3136 23.9711 14.576C23.9535 14.3184 23.9149 14.1074 23.8644 13.9304H23.8866L19.6972 1.21867C19.5637 0.814273 19.2461 0.464381 18.9747 0.423475L16.2031 0.00360574C15.9029 -0.041773 15.6581 0.346788 15.6581 0.852197V1.7116C15.6581 2.22297 15.9061 2.59522 16.2042 2.54053L19.1174 1.96626L21.0764 8.18817C20.3179 7.40993 19.4343 6.96528 18.4998 6.96528C16.1107 6.96528 14.0566 9.87222 13.5948 13.8114C13.0829 13.3353 12.5635 13.0848 12.0465 13.0661L11.991 13.0653C11.4463 13.0653 10.9075 13.311 10.3857 13.7969C9.92002 9.86672 7.86703 6.96602 5.48279 6.96602C4.55294 6.96602 3.67418 7.4063 2.91772 8.17755L4.87306 1.96766L7.78619 2.54202C8.08194 2.59727 8.33261 2.22446 8.33261 1.71309V0.853688C8.33261 0.348279 8.08867 -0.0453138 7.78701 0.00491026L5.01546 0.424966C4.74386 0.466804 4.42659 0.815763 4.2929 1.22072L0.103772 13.9305H0.13603C0.0852051 14.1074 0.0465934 14.3177 0.0285746 14.5761C-0.0867129 16.2816 0.150927 17.4552 0.667776 17.7854ZM18.4947 9.14243C20.5857 9.14243 22.287 12.0369 22.287 15.5946C22.287 19.1525 20.5857 22.0464 18.4947 22.0464C16.4036 22.0464 14.7022 19.1524 14.7022 15.5946C14.7022 12.0369 16.4036 9.14243 18.4947 9.14243ZM5.5529 9.14243C7.64423 9.14243 9.34561 12.0369 9.34561 15.5946C9.34561 19.1525 7.64417 22.0464 5.5529 22.0464C3.46211 22.0464 1.76073 19.1524 1.76073 15.5946C1.76068 12.0369 3.46211 9.14243 5.5529 9.14243Z" fill="black"/>
<ellipse cx="5.5316" cy="15.6543" rx="3.83379" ry="6.52261" fill="#ED9120"/>
</svg>
